<svg xmlns="http://www.w3.org/2000/svg" xmlns:xlink="http://www.w3.org/1999/xlink" viewBox="0,0,255.99098,255.99098" width="100px" height="100px"><g fill="#ffffff" fill-rule="nonzero" stroke="none" stroke-width="1" stroke-linecap="butt" stroke-linejoin="miter" stroke-miterlimit="10" stroke-dasharray="" stroke-dashoffset="0" font-family="none" font-weight="none" font-size="none" text-anchor="none" style="mix-blend-mode: normal"><g transform="scale(2.56,2.56)"><path d="M63.80273,15.4043c-0.892,0 -1.71517,0.36616 -2.32617,1.03516l-23.61719,21.58984c-0.409,0.371 -0.44131,1.00506 -0.07031,1.41406c0.197,0.218 0.47019,0.32813 0.74219,0.32813c0.24,0 0.47987,-0.08676 0.67188,-0.25977l23.66016,-21.62891c0.026,-0.024 0.05122,-0.05017 0.07422,-0.07617c0.294,-0.334 0.63323,-0.4043 0.86523,-0.4043c0.588,0 1.19531,0.44259 1.19531,1.18359v15.66602l-15.32227,11.58398l0.00586,0.00586l-0.8418,0.63672c-0.44,0.333 -0.52636,0.95939 -0.19336,1.40039c0.197,0.26 0.49583,0.39648 0.79883,0.39648c0.21,0 0.42252,-0.06612 0.60352,-0.20312l14.95117,-11.3125l0.00391,26.14258l-40.30273,-30.46094c-1.495,-1.095 -3.66205,-1.05388 -5.24805,0.07813c-0.831,0.594 -2.88945,2.50292 -3.06445,2.66992c-0.991,0.794 -1.58491,1.97709 -1.62891,3.24609c-0.045,1.27 0.46439,2.48952 1.40039,3.35352l45.31641,41.43164c0.611,0.669 1.43517,1.03711 2.32617,1.03711c0.654,0 1.30933,-0.21756 1.86133,-0.60156l14.26953,-6.55664c2.432,-0.839 4.06641,-3.11792 4.06641,-5.66992v-43.19922c0,-2.552 -1.63361,-4.83081 -3.97461,-5.63281l-14.36133,-6.59375c-0.551,-0.384 -1.20733,-0.59961 -1.86133,-0.59961zM67,18.81641l12.28125,5.63477c1.626,0.561 2.71875,2.0803 2.71875,3.7793v43.19922c0,1.699 -1.09159,3.21845 -2.80859,3.81445l-12.19141,5.59961v-15.93359l-0.00391,-30.14844c0,-0.004 0.00391,-0.00772 0.00391,-0.01172zM78.5,27.375c-0.276,0 -0.5,0.224 -0.5,0.5v25c0,0.276 0.224,0.5 0.5,0.5c0.276,0 0.5,-0.224 0.5,-0.5v-25c0,-0.276 -0.224,-0.5 -0.5,-0.5zM22.18945,33.62305c0.484,0 0.94536,0.14787 1.31836,0.42188l41.49219,31.36328v15.66602c0,0.74 -0.60731,1.18359 -1.19531,1.18359c-0.232,0 -0.57124,-0.0703 -0.86523,-0.4043c-0.024,-0.027 -0.04917,-0.05117 -0.07617,-0.07617l-45.34961,-41.46094c-0.504,-0.465 -0.77886,-1.12455 -0.75586,-1.81055c0.024,-0.687 0.3455,-1.32473 0.9375,-1.80273c0.604,-0.563 2.30492,-2.11764 2.91992,-2.55664c0.474,-0.339 1.03322,-0.52344 1.57422,-0.52344zM23.35938,51.70313c-0.25562,-0.0115 -0.5167,0.07667 -0.7207,0.26367l-1.07812,0.98438l-0.00977,-0.00781l-5.39258,4.92969c-0.933,0.86 -1.44344,2.08256 -1.39844,3.35156c0.044,1.27 0.63822,2.45322 1.57422,3.19922c0.231,0.216 2.29009,2.12375 3.12109,2.71875c0.811,0.577 1.78037,0.89453 2.73438,0.89453c0.913,0 1.78144,-0.28022 2.52344,-0.82422l8.08984,-6.10156c0.44,-0.333 0.52636,-0.96039 0.19336,-1.40039c-0.335,-0.442 -0.96039,-0.52931 -1.40039,-0.19531l-8.07617,6.08984c-0.815,0.597 -2.00534,0.5482 -2.90234,-0.0918c-0.615,-0.439 -2.31752,-1.99547 -2.97852,-2.60547c-0.536,-0.43 -0.85586,-1.06886 -0.88086,-1.75586c-0.023,-0.686 0.25095,-1.34464 0.75195,-1.80664l6.47852,-5.9043c0.407,-0.372 0.43845,-1.00511 0.06445,-1.41211c-0.1865,-0.205 -0.43773,-0.31467 -0.69336,-0.32617zM78.5,55.375c-0.276,0 -0.5,0.224 -0.5,0.5v4c0,0.276 0.224,0.5 0.5,0.5c0.276,0 0.5,-0.224 0.5,-0.5v-4c0,-0.276 -0.224,-0.5 -0.5,-0.5zM78.5,61.375c-0.276,0 -0.5,0.224 -0.5,0.5v1c0,0.276 0.224,0.5 0.5,0.5c0.276,0 0.5,-0.224 0.5,-0.5v-1c0,-0.276 -0.224,-0.5 -0.5,-0.5zM78.5,65.375c-0.276,0 -0.5,0.224 -0.5,0.5v5.75c0,0.276 0.224,0.5 0.5,0.5c0.276,0 0.5,-0.224 0.5,-0.5v-5.75c0,-0.276 -0.224,-0.5 -0.5,-0.5z"></path></g></g></svg>